#!OML:ASF I:\Actors\actors\Patient Classification 1\Patient 1\Session 1\Subject1.ASF
:FULLY-SPECIFIED
:DEGREES
1903
root -0.0112747 17.5423 7.83355 11.8217 -2.5374 -9.65511
lowerback 3.45897 3.00186 7.06229
upperback -2.6792 4.29384 -2.86684
thorax -4.00151 1.88923 -7.24714
lowerneck -6.11155 6.17305 9.61517
upperneck 31.8644 11.4214 -12.7599
head 12.9459 4.84169 -5.15238
rclavicle -1.59028e-014 1.11319e-014
rhumerus 33.7468 18.1327 -41.9681
rradius 121.116
rwrist -46.7938
rhand 12.7276 -52.2672
rfingers 7.12502
rthumb 37.7086 -78.1451
lclavicle -1.59028e-014 1.11319e-014
lhumerus -13.5591 -66.9468 65.4672
lradius 108.02
lwrist 1.12551
lhand -26.701 -40.5662
lfingers 7.12502
lthumb -0.131331 -10.5865
rfemur -8.70963 28.9932 21.6063
rtibia 0.936063
rfoot -10.8465 -27.8596
rtoes 2.38141
lfemur 1.4614 -54.4232 -7.25341
ltibia -4.8268
lfoot -45.1212 63.3632
ltoes 25.9275
1904
root -0.0107418 17.5428 7.83841 11.7754 -2.34016 -9.6171
lowerback 3.99346 3.02021 7.29873
upperback -2.91789 4.37197 -2.94181
thorax -4.52298 1.8858 -7.51708
lowerneck -5.77155 6.13875 9.9018
upperneck 32.2167 11.3625 -12.6503
head 13.0264 4.87309 -5.19337
rclavicle -4.01545e-014 7.95139e-015
rhumerus 33.7561 16.2825 -43.1057
rradius 122.063
rwrist -46.6628
rhand 13.254 -49.3939
rfingers 7.12502
rthumb 38.2057 -75.1368
lclavicle -4.01545e-014 7.95139e-015
lhumerus -13.9077 -67.3512 65.7802
lradius 108.121
lwrist 1.14993
lhand -26.5911 -40.6185
lfingers 7.12502
lthumb -0.0251823 -10.6387
rfemur -8.58687 29.0644 21.6075
rtibia 0.888659
rfoot -11.0399 -28.1088
rtoes 2.81545
lfemur 1.41899 -54.4139 -7.24504
ltibia -4.84617
lfoot -44.4846 63.367
ltoes 25.6197
1905
root -0.0111118 17.5431 7.84246 11.7713 -2.14303 -9.62868
lowerback 4.21003 3.00303 7.42962
upperback -3.01423 4.3779 -2.88275
thorax -4.74345 1.87056 -7.5502
lowerneck -5.35261 6.10513 10.1135
upperneck 32.4307 11.3624 -12.7232
head 13.0486 4.90726 -5.28337
rclavicle 1.8487e-014 -3.18055e-014
rhumerus 34.1059 14.4992 -43.9952
rradius 123.263
rwrist -46.5525
rhand 13.7083 -46.6133
rfingers 7.12502
rthumb 38.6344 -72.237
lclavicle 1.8487e-014 -3.18055e-014
lhumerus -14.292 -67.4112 66.2115
lradius 108.198
lwrist 1.18057
lhand -26.5705 -40.531
lfingers 7.12502
lthumb -0.00528912 -10.5512
rfemur -8.51199 29.1552 21.6473
rtibia 0.828046
rfoot -11.1167 -28.3842
rtoes 2.87305
lfemur 1.28687 -54.3513 -7.10138
ltibia -4.85734
lfoot -43.9666 63.2901
ltoes 25.4431
1906
root -0.0113149 17.5439 7.84481 11.8397 -1.95975 -9.71298
lowerback 4.27093 2.99244 7.60791
upperback -2.97981 4.3823 -2.81599
thorax -4.73445 1.86923 -7.58342
lowerneck -5.30141 6.20341 10.0547
upperneck 32.953 11.4335 -12.2336
head 13.2371 4.97984 -5.08612
rclavicle -1.0138e-014 3.33958e-014
rhumerus 34.6198 12.5971 -44.7772
rradius 124.716
rwrist -46.6343
rhand 14.1255 -44.1319
rfingers 7.12502
rthumb 39.0279 -69.6439
lclavicle -1.0138e-014 3.33958e-014
lhumerus -13.9524 -67.3196 65.9441
lradius 108.238
lwrist 1.23857
lhand -26.6937 -40.4184
lfingers 7.12502
lthumb -0.124261 -10.4387
rfemur -8.54773 29.2488 21.7238
rtibia 0.805126
rfoot -11.179 -28.6261
rtoes 2.9669
lfemur 1.03002 -54.2647 -6.75836
ltibia -4.88945
lfoot -43.6072 63.1594
ltoes 25.4651
1907
root -0.0114925 17.5456 7.84628 11.9477 -1.79629 -9.76574
lowerback 4.33685 2.98851 7.79637
upperback -2.92127 4.39364 -2.80651
thorax -4.69649 1.87251 -7.68334
lowerneck -5.44636 6.25454 10.3368
upperneck 33.4927 11.5205 -12.221
head 13.5432 5.04376 -5.14109
rclavicle 1.80894e-014 -2.38542e-014
rhumerus 35.0666 10.7672 -45.5471
rradius 126.304
rwrist -46.6848
rhand 14.6593 -41.8019
rfingers 7.12502
rthumb 39.5309 -67.1677
lclavicle 1.80894e-014 -2.38542e-014
lhumerus -13.6436 -67.2081 65.6001
lradius 108.331
lwrist 1.24996
lhand -26.6908 -40.5437
lfingers 7.12502
lthumb -0.121433 -10.564
rfemur -8.63952 29.3808 21.7268
rtibia 0.78658
rfoot -11.3446 -28.8623
rtoes 3.35148
lfemur 0.75935 -54.3918 -6.42903
ltibia -4.93333
lfoot -43.5253 63.2102
ltoes 25.4745
1908
root -0.0107181 17.547 7.84823 12.0736 -1.66524 -9.72247
lowerback 4.37522 2.93309 7.83099
upperback -2.92329 4.32472 -2.80868
thorax -4.73115 1.83493 -7.70476
lowerneck -5.31982 6.36362 10.5905
upperneck 33.8999 11.7394 -12.3174
head 13.7634 5.16274 -5.21869
rclavicle 1.07344e-014 -1.27222e-014
rhumerus 35.488 9.26061 -46.3792
rradius 127.98
rwrist -46.6986
rhand 15.6149 -39.7726
rfingers 7.12502
rthumb 40.4301 -64.8674
lclavicle 1.07344e-014 -1.27222e-014
lhumerus -14.0581 -66.9937 65.8065
lradius 108.431
lwrist 1.27896
lhand -26.5573 -40.649
lfingers 7.12502
lthumb 0.00748373 -10.6692
rfemur -8.75246 29.4396 21.5979
rtibia 0.731039
rfoot -11.4302 -29.0306
rtoes 3.58688
lfemur 0.503841 -54.7438 -6.25325
ltibia -4.90826
lfoot -43.8998 63.3805
ltoes 25.471
1909
root -0.00934872 17.5482 7.85011 12.2021 -1.54829 -9.61851
lowerback 4.23575 2.78018 7.59745
upperback -2.869 4.09509 -2.7384
thorax -4.65591 1.73527 -7.47081
lowerneck -4.94801 6.53375 10.835
upperneck 34.1192 12.0598 -12.4697
head 13.8684 5.32901 -5.30107
rclavicle 2.26615e-014 -1.59028e-015
rhumerus 36.1422 8.12987 -47.1671
rradius 129.696
rwrist -46.6222
rhand 16.8841 -37.7471
rfingers 7.12502
rthumb 41.6221 -62.4625
lclavicle 2.26615e-014 -1.59028e-015
lhumerus -14.6972 -66.4342 66.1532
lradius 108.488
lwrist 1.30022
lhand -26.6895 -40.6928
lfingers 7.12502
lthumb -0.120166 -10.7131
rfemur -8.87175 29.4736 21.3924
rtibia 0.661083
rfoot -11.442 -29.1929
rtoes 3.72727
lfemur 0.239071 -55.0867 -6.15313
ltibia -4.86531
lfoot -44.1996 63.5572
ltoes 25.4353
1910
root -0.00896685 17.5496 7.8506 12.3168 -1.4565 -9.57441
lowerback 3.85456 2.64502 7.30705
upperback -2.63046 3.86803 -2.5783
thorax -4.25468 1.66187 -7.08504
lowerneck -4.74486 6.70761 10.9524
upperneck 34.1948 12.392 -12.678
head 13.9441 5.47257 -5.37063
rclavicle 3.77691e-015 -7.95139e-015
rhumerus 36.8697 7.16949 -47.7317
rradius 131.471
rwrist -46.3329
rhand 18.6099 -35.8285
rfingers 7.12502
rthumb 43.238 -59.9898
lclavicle 3.77691e-015 -7.95139e-015
lhumerus -14.783 -65.6993 66.1668
lradius 108.489
lwrist 1.26048
lhand -26.8117 -40.7754
lfingers 7.12502
lthumb -0.238194 -10.7958
rfemur -9.00079 29.544 21.2639
rtibia 0.644021
rfoot -11.5119 -29.3472
rtoes 3.94863
lfemur 0.0553845 -55.4981 -6.02414
ltibia -4.86888
lfoot -44.819 63.756
ltoes 25.5585
1911
root -0.00932694 17.5506 7.85067 12.4028 -1.41875 -9.62215
lowerback 4.17299 2.75652 7.5999
upperback -2.80771 4.05531 -2.78416
thorax -4.55919 1.72174 -7.51166
lowerneck -4.29275 6.63815 11.1273
upperneck 34.4979 12.2331 -12.3561
head 13.9419 5.47715 -5.31838
rclavicle -1.37161e-014 1.11319e-014
rhumerus 36.2213 6.16413 -48.3657
rradius 133.377
rwrist -45.774
rhand 21.1824 -34.2315
rfingers 7.12502
rthumb 45.635 -57.4765
lclavicle -1.37161e-014 1.11319e-014
lhumerus -15.2315 -66.1532 66.4269
lradius 108.542
lwrist 1.30539
lhand -26.8364 -40.6102
lfingers 7.12502
lthumb -0.262052 -10.6306
rfemur -9.11305 29.592 21.2649
rtibia 0.672494
rfoot -11.582 -29.4045
rtoes 4.0855
lfemur 0.0288882 -56.0969 -5.91207
ltibia -4.87054
lfoot -46.1633 64.0062
ltoes 25.9507
